<?xml version="1.0" encoding="utf-8"?>
<!-- Generator: Adobe Illustrator 26.2.1, SVG Export Plug-In . SVG Version: 6.00 Build 0)  -->
<svg version="1.1" id="Laag_1" xmlns="http://www.w3.org/2000/svg" xmlns:xlink="http://www.w3.org/1999/xlink" x="0px" y="0px"
	 viewBox="0 0 2500 838.8" style="enable-background:new 0 0 2500 838.8;" xml:space="preserve">
<style type="text/css">
	.st0{fill-rule:evenodd;clip-rule:evenodd;}
</style>
<g>
	<path class="st0" d="M1682.2,67.4l-1.7,1.7c-1.4,0-2.1-0.7-2.1-1.7h-1.7c-3.5,1.7-10.4,3.8-20.7,5.5V75c-9,0-15.9,1-20.4,3.8
		c-4.5,0-5.2,0.4-1.4,1.4l-2.1,0.4c-5.2,0-22.4,9.7-51.5,29.7c-29.7,20-44.6,32.5-44.9,36.6l-5.2,2.4l-4.1,3.4v1.7l-35.2,57.3
		l-7.6,9.7c-8,14.2-12.4,24.9-13.1,31.4c-2.1,10.7,0,21.4,5.5,32.1c5.2,9,7.6,14.5,7.6,15.9c1,0,3.4-1.4,7.6-3.8l3.8,9.3
		c3.4,0,7.6,1,13.1,2.8c5.2,2.1,9.4,2.8,12.8,3.1c0,0.7,1,1.4,3.8,1.4l5.5-1.4c15.2-9.7,25.2-20.4,29.7-32.1l3.1-18.3
		c1-3.1,2.4-5.5,3.8-7.3c0-1-1-1.7-3.1-1.7l6.9-13.1c-0.4,0-0.4-2.1,0-5.9c0.1-1.6,0.6-3.1,1.4-4.5l2.4-8c1.4,0,2.4,0.7,3.8,1.7v2.1
		h1.7l-1.7-9.7c2.1,0,5.6-3.8,10.4-11.1l8-14.9c1.4,0,2.8,1.4,3.8,3.8h2.1c0-5.5,3.4-11.1,10.3-16.6l17.3-11.1l9.3,1.7
		c0-1,1-4.5,3.8-9.3h3.8l-2.1,7.6h2.1v-2.1l12.1-6.9c6.9-4.1,12.8-4.8,17.6-2.4h1.7l-1.7-5.9h10.7v2.1c0.7,0,1.4-0.4,2.4-0.7
		l42.5-1.4c0-1-1.4-1.7-3.8-1.7v-1.7h11.4c0,2.4,2.8,4.8,9,7.6c-0.4-1.4,1-0.7,3.5,1.7c0,1.4,0.7,1.7,2.1,2.1c0-1.7,1-3.1,3.8-3.8
		v-4.1h1.7c0,3.1,1,6.2,3.8,9.7v2.1h2.1v-2.1h1.7v-1.7h-3.8v-2.1l3.8,2.1l10.7,5.5c2.1,0,3.1,1.7,3.8,5.5l5.5-3.8
		c0,2.4,2.1,5.5,6.2,9.3l8.6,11.1h5.5c1.4,0,2.8,1.4,4.5,4.8l2.8,7.3l6.6,4.8c8.3,10,14.9,15.5,19.7,16.6l-3.8,3.8h-1.8v1.7
		c1.4,0,5.2,2.4,11.1,7.6c8.6,19.7,13.4,31.8,14.5,36.6h2.1v2.1h1.7c0-1.4-0.4-2.8-1.7-3.8v-2.1h1.7c0,1.4,0.7,2.4,2.1,3.8
		c1.4,0,1.7,0.7,1.7,2.1c-1,0-1.7,0.7-1.7,1.7h-3.8c0,1.4,3.1,3.8,9.3,7.6c0,6.9,0.7,11.4,2.1,13.1c0,1.4-0.4,1.7-1,2.1l-2.8-0.7
		h-2.1c0,1.7,2.8,2.8,7.6,3.8l2.8,20.7c1.4,9.7,1,15.9-0.7,18.3v2.1l7.3,1.7v2.1c-1-0.3-1.7,3.4-1.7,10.7c-1.4,0-2.1,0.7-1.7,1.7
		h1.7v2.1h-3.8l2.1-5.5c-3.8-0.3-4.8,2.4-3.8,7.3h-2.1c0-1.7-1.7-3.8-5.5-5.5v-1.7h-2.1c0,1,0.7,2.4,2.1,3.5v2.1h-2.1
		c0-2.4-8.3-8-24.9-17.3l-42.4-21.4l-28-6.9c-13.8-3.1-22.8-3.1-26.9-0.3l-6.9-2.1h-2.1v-2.1h-3.8v5.9h-3.8c0-1.4-1-2.1-2.8-1.7
		h-4.8l-9.3,3.4v-1.7h-1.4v3.8h-1.7v-2.1c-1.7,0-3.1,0.7-3.8,2.1h-9.6c0-1.4-1-2.1-3.8-2.1v2.1c-0.9-0.1-1.7,0.6-1.7,1.5
		c0,0.1,0,0.1,0,0.2c-4.8,0-10,2.4-14.5,7.3l-7.6-2.1c0,2.1-2.8,4.1-8,5.5l-10.3,3.8h-3.8v-1.7l-16.9,14.9c-1.4,0-2.1,0.7-2.1,2.1
		c-2,0-5.5,2.4-10,6.9l-8.3,9.7c-6.6,0-13.1,6.6-20,20v2.1c-1.4,0-2.1,0.7-2.1,1.7h-1.7v2.1l-3.8,3.8c1,0-2.1,4.5-9.6,14.2l-18,21.1
		h1.7l-16.9,24.5l-7.2,14.9l-16.9,16.2h-1.7c0,1.4-2.1,1.4-5.9,0h-1.4c0,0.7-1.7,1.7-5.5,2.4l-25.9,3.5l-26.2,10.3h-1.7
		c0,0.7-4.1,1.8-13.1,3.5l-44.2-0.4c-22.1-1-35.6-3.1-39.4-6.2c-5.2-4.2-8.6-11.8-10.4-22.8l1-20c-0.7-17.6-0.4-30,1.4-37l6.2-24.2
		c-0.4-15.5,1.7-35.2,5.9-59l10.3-57.7l4.8-55.6l8.6-31.1c3.4-13.1,4.8-23.8,4.5-32.1c-0.5-8.2-3.5-16-8.6-22.4
		c-5.5-7.6-12.4-11.7-20-12.8c-15.2-1.7-25.6,6.6-31.8,24.9c-3.4,10.4-5.2,25.9-5.5,46.6l-0.4,49c-1.7,40.1-6.6,78.4-14.9,115.3
		l-3.8,25.9c-1.7,11.7-3.8,19.7-6.6,23.8c0,19.7-0.7,34.2-2.4,44.2l-7.3,46.3c0.4,19.4,5.6,36.3,14.5,50.4
		c11.1,17.3,25.5,22.8,43.5,16.2v2.1l1.8-0.4c12.1-3.8,22.8-6.6,31.4-7.9l20.4-3.1c1,0,1.7,2.1,1.7,5.9h2.1l1.7-5.9V555h32.5
		c14.5,1,23.5,4.5,27,10.7l2.4-0.7l1.4-1l15.2,7.6c-0.4-1,0.7-1,3.1,0c0-3.5,3.1-1,9.3,7.6c0,1,0.7,1.7,2.1,1.7
		c0-1.7,1.7-3.1,5.5-3.8l1.7,5.5c7.9,0,15.5,3.4,22.8,10c8,7.3,14.2,11.4,18,12.4l-3.4,5.5l40.4,36.9h3.8l-1.4-4.8l-2.4-4.5h2
		c0,3.1,3.5,5.2,10.4,6.9l13.8,2.4v1.7c-1.4,0-2.1-0.7-2.1-1.7c-1.4,0-2.1,1-1.7,3.5h3.8c-0.4,2,0.3,1.4,1.7-1.8l11.1,1.8l4.2,7.6
		h3.8l-2.1-5.6h2.1c-0.3,5.6,11.4,7.3,34.5,5.6l25.9-1.8c0-1.7,4.5-2.4,13.2-2.1c9.6,0.4,15.2-0.7,16.6-3.8c11.7,0,19,2,22.8,5.8
		h1.7c0-4.1,2.1-6.6,6.2-7.3l10.4-0.4c1,0,1.7-1.4,1.7-3.8v-1.4c1.4,0,2.4,1.7,3.8,5.2l14.5-6.9c0,3.4,6.2,0.3,19-9.7
		c0,2.8,5.5,1.7,16.6-1.7l20.4-9.3c0,1.4,1.4,3.4,3.5,5.5c12.8-8.6,21-13.5,24.5-14.9c0-1.7,2.4-1.7,6.9,0v-5.5
		c1.4,0,3.1,1.4,5.9,3.8c0-3.8,3.1-6.2,9.6-8l16.2,0.4c1-3.8,5.2-7.3,11.7-9.3c7.6-2.8,12.1-5.2,14.2-7.6h3.8v1.7h-2v11.4h3.8
		l-1.7-3.4h5.5c0,9.6,0.7,15.9,1.7,18.7l3.8,16.6h-1.8v1.7c2.1,0.4,5.5,3.5,10.4,10c10,13.5,22.8,20.7,38,21.4l48.3-2.1l17.9,0.3
		l2.8-3.4l8.6-0.3v-3.8c7.6-1,12.4-2.4,14.5-3.8l15.2,2v-3.8c0-1.4,1-2,3.8-2.4c2.8,0,4.5-0.7,5.2-1.4l15.2,2.1
		c4.8,0,8.6-0.7,10.7-2.1h1.7l-1.7,3.8h1.7v1.8c1,0,2.4-1.8,3.8-5.6l8.3,1.4c8.3-1,17.6-4.5,28-10.4c13.5-7.3,22.4-11.4,27-13.1
		c0-1.7,6.5-3.1,19.7-5.2l24.9-3.8v1.4h2.1c0,1.4-2.1,1.8-5.5,2.1c0,2.1,2.4,2.4,6.9,1.7c0,1,0.7,2.1,1.7,2.4
		c17.6,5.8,28.3,10,31.8,12.8c7.3-0.4,19,1.7,35.2,5.5v-5.5h1.7c0,1.7,3.1,3.4,8.6,5.2l11.8,2.4c0,0.3,1.7,0.3,5.5,0
		c19.3-2.4,42.1,2.4,68.7,14.5l3.5,0.4l12.4-0.4l8.3-1.7c8.6-2.1,15.2-5.9,19.7-11.1c9.4-10.4,12.8-22.8,10.4-37.3
		c-1.7-14.2-8.6-24.5-20.4-31.4c-3.1-1.7-6.3-3.2-9.6-4.5l-7.6-1.1c0-1-1.8-2.4-5.6-4.1v-1.7l-1.4,1.7h-2.1v2.1h-3.8
		c0-1-1.7-1-5.5,0c0-1.4-0.7-2.1-1.7-2.1v2.1h-3.8v2h-12.8l-54.2,3.5c0-0.7-1.7-1.4-5.2-1.4l-33.5-1.7c-14.1-1.7-25.2-1.7-33.5-0.4
		v-2h-3.4v2h1.7c0,1.1-0.7,1.8-1.7,1.8v-1.8l-43.5-1.7l-45.6,1.7l-7.6,1.8l-64.9,3.8c0,0.3-1.7,1.4-5.2,1.7v-1.7
		c-1.4,0-2,0.7-1.7,1.7h-2.1c0,1-1.4,1.4-4.1,1.4l-7.2,0.7l-18.3-2.1v2.1l-7.6-2.1c-0.7,0-1.7-0.4-3.1-1.4l-2.4-2.4v-1.7
		c-8.3,0-8.6-8.6-0.3-25.6c7.6-16.9,14.9-26.2,21-28.3l-1.4-3.8l-2.4-3.5c2.1-0.4,5.2-2.8,9.3-7.6c4.2-5.2,5.9-8.6,5.2-10.7V490
		l7.6-1.7c0-1-1-2.4-3.5-3.8l9.3-2.1v-1.7h-3.8v-2.1h-2v-1.7c2,0,6.6-4.5,13.8-13.8l14.2-17.6l-5.6-2.1h1.8c0-1.4,0.7-2.8,2-3.1
		l7.3-3.8c-3.5,0-0.4-5.8,9-16.9c1.4-0.3,1.7-2.8,1.7-7.6c1,0,1.7,0.4,2.4,1l1.4,0.7c1.4,0,2.4-1,3.5-2.8l33.8-46.3
		c19-24.2,31.1-37,35.2-38l-1.7-5.5h1.7c0-0.7,2-0.7,5.8,0c-0.3-4.5,1.8-9,5.5-13.5l10.7-10.7c1.4,0,0.7-1-1.7-3.8v-1.4l5.5,1.4
		v-1.4c0.7,0,0.7-1.7,0-5.5c1.4,0,2.4,0.7,3.8,1.7v2.1h2.1l-2.1-7.6c3.1-0.3,5.8-2.4,8.6-6.2l4.2-10.7h3.8c0-3.1,1-3.8,3.1-1.4
		c1-1,1.8-2.8,2.4-5.9c2.8,1,5.5-0.7,9-4.5c3.5-4.1,5.5-7.6,5.5-10.3c0.7,0,3.1-1.4,7.6-3.8l2.1-3.8v1.7l2.1-1.7
		c9.1-9,16.4-19.5,21.8-31.1c6.6-14.5,6.6-25.6,0-33.5h5.5c0-0.7-1.4-4.1-4.2-9.7l-6.9-16.6l-18.3-18.3h-2.1c0-1.1-1.7-0.4-5.5,1.7
		v-3.8l-20-3.8c-1.4,0-2.8,0.7-4.2,2.1l2.1-3.8l-20.4,1.7c0.1-0.9-0.6-1.7-1.5-1.7c-0.1,0-0.1,0-0.2,0c0,1-0.7,1.7-2.1,1.7
		c0,1-3.8,1-11.1,0v2.1l-40.4-2.1c-0.4,1.4-2.8,2.1-7.6,2.1l-14.9,1.7c-3.8,0-7.9,1.4-13.1,3.8v-1.7c-6.2,0-16.2,3.8-29.7,11h-3.5
		c-0.3,1.4-1.4,1.4-3.8,0h-2v3.8h-3.8c0-1-1.4-1.7-4.2-1.7h-10.4c0,1.7-2.1,2.4-6.2,2.4l-23.5,5.5l-35.2,2.8l-28-2.1
		c0,3.1-4.5,3.8-13.5,2.1c-9-1.4-14.1-3.4-16.2-5.5c-8.1,0-16.1-1.1-23.8-3.4c0,1.4-2.4,2.1-6.6,2.4l-8.6,1h-1.7
		c0-1-10,3.1-29.7,13.1c0,1-0.7,1.7-1.4,2.1c0-1-2.1-4.8-5.5-11.7l-3.8,2.1c-2.4,0-5.9-3.1-11.1-9.3l-11.4-12.8
		c-2.1,0-5.5-2.4-9.7-6.9l-9-9.7l-35.2-22.4c-2.8,0-12.4-3.8-29.7-10.7l-34.9-8.3L1682.2,67.4L1682.2,67.4z M1663.5,413.7V412h1.7
		c0,1,3.1,0.4,9.3-2.1v-1.4h2.1l-2.1,7.2h2.1v-2.1c0.3,0,1.7-2.4,3.8-6.9h-2.1v-2.1c5.5,0,11.4,1.7,18.3,5.2v-1.4h2
		c0-1.4-2-3.8-5.9-7.6c2.4,0,3.5-0.3,3.8-1.7v-2.1c1,0,2.4,2.1,4.1,5.9l12.4-2.1c2,0,3.1-1,3.8-3.8c2.1,0,3.8,2.1,5.5,5.9h2.1v-2.1
		c0.7,0,0.7-1.7,0-5.5l7.6,3.8l1.8-7.6l2,3.8l5.6,5.5l14.5-1.7c0-2.1,0.4-2.1,1,0.3l1,5.2h1.7l18.3-1.7v-2.1h2.1v2.1h1.7
		c0,1-1,3.1-3.8,5.5h-1.7c2.1,1,4.5,1.4,6.9,1.4h10l5.5,5.9c2.8,0,3.8-0.7,3.5-2.1h1.8v2.1c1.4,0,1.4,1,0,3.8v1.7l9.6-1.7
		c-0.4,1-1,1.7-2.1,1.7v1.7c1,0,2.4,0.7,3.8,2c-2.4,0-1.4,2.1,2.8,6.2l8.6,8.3c0,1.4,1.7,2.4,5.2,3.8h-1.7c0,2.1,2,4.8,5.8,9
		c4.2,4.5,6.6,8,6.9,10h7.6c0,0.7-1.8,2-5.6,3.4v2.1c5.2,0,7.6,3.4,7.6,10.7l2.8,10.4c-2.1,23.1-10.4,36.9-25.2,41.4v2.1
		c2.8,0,2,1-1.8,3.8v1.7h-1.7v2.1h-2.1l-1.7-3.8c-0.3,2.4-2.1,4.1-5.2,6.5l-8,4.5c-0.3,1.4-0.7,2-2.1,2c0-2-1.7-2-5.5,0h1.8
		l-5.2,1.7v3.8h-1.7v-3.8h-2.1c0,2.1-9,7.3-26.6,15.6l-32.5,13.8c-26.2,3.4-49,3.8-69.1,0.4c0,1-1.7,1-5.5,0h-1.7
		c0,1.4-0.7,1.7-2.1,1.7v-1.7c-6.6,0-15.2-2.1-26.2-5.9c-12.1-5.2-18.3-10-17.9-14.9l-5.5-1.7v-3.5c-1.4,0-2.1,0.4-2.1,1.4
		c-1.4,0-3.4-5.5-5.5-16.2l-2.8-20.4l1-15.2c-1.4,0-2.4-0.7-3.5-1.7c4.8,0,5.2-3.8,1.4-10.7c1.7-0.4,2.4-1.4,2.1-3.8v-3.8
		c0-4.2,2-10.7,6.6-19.7c4.5-10,8.6-15.9,12.1-17.6l-1.4-4.8l-2.4-4.2h1.7c0-1,1-2,2.8-2.8l3.1-2.8c2.1,0,4.5,1,6.9,3.8l16.9-13.4
		c-1,0-1.7-0.7-1.7-1.7l7.6-1.7h1.7c0,1-1,2.4-3.4,3.5l-2.1,7.9h3.8v1.7l5.5-6.2c3.8-4.5,7.3-6.9,10.7-6.9L1663.5,413.7
		L1663.5,413.7z M1959.8,245.2c2.4,0,4.1-1.7,5.8-5.5v-2.1h1.8l-1.8,5.9h5.5c0-4.5,4.8-7.6,14.5-9.7c6.2,0,14.9-1.4,25.5-4.5
		c11.1-3.8,19.7-5.9,24.9-6.2v-1.7c0.7,0,0.7,1.7,0,5.5l7.3-1.7c2.1-0.4,3.5-0.7,3.8-2.1c0-0.7,0.4-1,0.7-0.7l1,2.8v1.7
		c2.1,0,4.2-1,6.9-2.8l7.2-4.1l32.1-6.2c0-2.8,2.4-1.4,7.6,3.8c1,0,1.8-2.8,1.8-7.6h22.4c7.6-1,14.2-4.1,20.4-9h2.1l1.7,5.2l6.2-0.4
		l6.6,4.1c0,1.4,0.7,1.7,2.8,1l4.5-2.8c0,3.4,2.8,4.1,7.6,1.7h2.1l-2.1,5.5h2.1l-3.8,3.8c1,0,1.7,1.4,1.7,3.8
		c-2.4,0-3.1,1.7-1.7,5.5c0,1.4-0.7,2.1-1.7,2.1c-0.4,1-1,1.7-2.1,1.7v3.5c0.7,0,0.7,2.4,0,7.6c0,1.4-1.7,3.8-5.2,7.3
		c-3.1,3.1-4.5,5.9-4.2,7.6l-7.6,12.8h-4.8c0.7,3.5,0,4.5-2.1,3.8c-0.4,1.7-3.1,7.6-9,16.9l-12.1,16.6l-1.7,3.8
		c-2.1,2.1-4.5,4.8-6.6,8.3l-7.9,13.8c0,1-3.8,4.5-11.4,9.3c0,3.4-6.6,13.8-19.7,31.1l-44.9,61.8v1.7c-1,0-1.7,0.4-1.7,1.4h-1.7
		l-1.7,3.8l-2.8,3.1c-27,33.5-40.4,50.7-40.4,52.5h-2.1c0,1-0.7,1.7-1.7,1.7c0-0.7-3.8,1.4-11.1,5.9v1.7h-3.5
		c-0.4-1,1.7-2.4,5.5-3.8v-1.7l-13.1-2.1V499h-2.1v-1.4l2.1-0.4c2.4-0.7,1.7-2.1-2.1-3.4c-0.4-11.1-1-18-1.8-20.7
		c0-1.4-0.7-2.1-2-2.1v-1.7l5.9,1.7v-1.7h-2.1c0-1.7-1-2.4-3.8-1.4h-1.7l1.7-2.1c0-13.1-0.4-21.1-1.7-24.2c1.4,0,1.7-0.7,1.7-1.4
		l-2.8-22.8c-0.7-9,0-16.2,2.8-22.1l-1-5.2c-1.1-1.9-1.3-4.1-0.7-6.2l-3.5-11.1l-0.7-13.5c-0.4-5.2-1.4-9.3-2.8-12.1l-2.1-9.3
		c1.8,0,1.8-2.8,0-8.6l-3.8-9.7h2.1l-5.8-21.1l-1.4-17.3l-0.4-1c-1.4,0-2.1-0.7-2.1-1.7c1.4,0,2.1-6.9,2.1-20.4h3.8
		c1.4,0,1.7-0.7,1.7-1.7c-1,0-2.4-1.4-3.8-3.8h-1.8v-2.1l9.3,3.8V249h2.1v3.8c0.7,0,1.4-2.4,1.4-7.6h1.7l2.1,5.5l7.3-1.7
		L1959.8,245.2L1959.8,245.2L1959.8,245.2z"/>
	<path class="st0" d="M2176.9,219.3c-1.4,0-2.1-0.7-1.7-1.7h-2.1v3.8C2173.8,221.4,2175.2,220.7,2176.9,219.3z M1211.2,190.3
		c-3.8-13.1-13.1-20-27.3-20.7c-9,5.9-14.5,13.5-16.2,22.8l-7.6,52.8c-1,10-0.7,18,1,24.2c-0.7,0-1,1.7-1,5.5l-5.5,138.8
		l-10.7,100.8l2.4,85.6c0.3,10,3.1,18,7.3,23.8c12.8,17.6,34.5,23.5,64.9,16.6c13.5-3.1,22.1-4.5,25.9-4.2
		c16.9,1.4,26.9,3.1,30.7,5.2c2.8,1,7.2,4.5,13.1,9.6c5.5,4.5,10,7.3,14.2,8.3l22.8,1.8c9.6,0.3,16.9,1.7,21.4,4.8l20.4,1.7
		c0,0.7,2.4,2.1,7.6,3.8c24.8,4.5,40.7,3.5,47.3-3.8c6.9-7.3,10-15.2,8.6-23.8c-2.1-15.5-11.1-25.9-26.9-30l-45.9-2.1l-62.9,5.9
		l-19.3,5.5c-5.5,1-12.8,1-21.4,0h-3.8c0,1-1.4,1.7-3.8,1.7c0,1.4-0.7,1.4-2.1,0h-3.1v3.8h-3.8v3.8h-2.1c0-1-1.7-2.4-5.5-4.1l-30-10
		c-10-3.8-16.9-11.4-20.4-22.8c-1.4-5.2-2.1-13.8-1.4-25.9c0.3-18.3,3.1-41.8,7.6-70.4l4.8-18.7l12.1-142.6c1-18.7,2.1-29,3.4-31.8
		c0-20,0.4-32.8,1-38.3c3.4-29.7,4.8-46.6,4.5-50.4l0.7-13.8C1212.6,198.3,1212.3,193.4,1211.2,190.3L1211.2,190.3z M1778.2,163.7
		h-3.8v3.8C1776.1,167.5,1777.1,166.5,1778.2,163.7z M2243.2,278.7c-1.4,0-1,0.7,1.7,1.7c0-1.4-0.3-2.8-1.7-3.4V278.7L2243.2,278.7z
		 M2217.3,313.9c1.7,0,1.7-1.7,0-5.5l-1.7,3.8c0.9,0,1.7,0.7,1.7,1.6C2217.4,313.8,2217.4,313.9,2217.3,313.9z M1860.3,617.8
		c-1.4-0.3-2.1-0.7-2.1-2.1h-2v3.8C1857.6,619.5,1859,618.8,1860.3,617.8L1860.3,617.8z M268.3,297c0,0.7-3.1,2.1-9.3,4.5
		c-10.3,2.8-21.8,7.6-34.2,14.5L192,334.3c-15.2,8.3-37.3,27.6-66.3,57.7l-29,28L67,464.8c-13.8,19.3-20.4,33.1-19.3,41.8
		c-1.4,0-3.1,4.8-5.5,14.9c-6.6,30.4-6.9,47.3-2.1,51.5c-0.7,9.7,1.4,20.7,6.2,33.2l5.2,15.9c1.7,6.2,4.1,11.4,6.9,15.5l22.4,16.2
		c15.5,13.1,29.7,21.4,42.1,25.5l26.9,14.2l77.7,9l43.2-2.4l4.5-1.7l35.6-3.8l15.2-5.2l18-3.8c19.3-6.2,45.6-19,78.4-39.7l13.1-7.6
		l15.2-18.3c20-25.2,32.1-47.3,36.3-65.3c1-6.2,0.7-15.2-1.4-28c-4.5-24.2-18.7-42.1-42.5-54.6c-21.4-11.4-45.6-15.9-72.9-14.2
		l-29.7,4.5c-11.4-0.4-24.2,2.4-38.7,7.3l-35.2,14.9c0-1.4-1.7-1.4-5.2-0.7l-8,2.4v2.1c-31.1-0.4-54.6,14.5-70.1,44.2
		c-0.3,8.3,1,15.9,3.1,22.4c0.3,2.8,1.4,4.8,2.8,7.6l6.6,9c1.4,0,2.4,0.7,3.1,2.8l1.4,4.1c9.7,9.3,15.5,17.6,18.3,25.2
		c0.4,1.4,0.7,10,0.4,25.2c0,10,3.4,16.2,10.3,18.7v-2.1h2.1c0-18.3,0.7-28.7,1.7-31.1c0-3.5,4.5-8.3,13.8-14.5l18.3-13.4
		c1.7-1.4,4.5-6.9,9.3-16.2l2.8-10c0-10.4,2.4-18.7,6.6-24.9l12.4-13.8l18.3-7.9l25.2-6.9c13.8-3.4,22.8-3.8,26.6-2.1
		c16.2,0,31.1,2.4,44.2,6.9c17.6,5.9,27.6,14.9,30,27.3c1,3.4,0.4,10.4-2.1,19.7c-2.8,13.4-8.3,25.2-16.6,35.2
		c-23.1,28-58.7,48.7-107.4,61.5c-15.9,4.2-26.2,5.9-31.4,5.2v2l-7.6,1.8c-53.9,0-93.6-4.2-120.2-13.1
		c-41.4-13.8-64.9-40.8-71.1-79.4c-3.4-29,0.3-52.1,11.4-69.1l18-34.2c7.3-13.8,15.9-23.1,24.9-28.7c18.3-19.3,28.3-30.4,29.7-32.8
		c1.4,0,1.7,1,2.1,3.1h3.4c0-4.1,6.6-11.1,19.3-21.1c35.6-28.3,83.9-50.8,145.7-67.7l33.2-5.2c21.8,0,37,1,45.6,3.4l33.5,12.1
		c28-13.8,40.8-24.5,38.3-33.2c-3.8-11.4-12.8-20-26.9-25.2c-4.5-2.1-17.3-5.2-38.7-9.7l-3.8,2.1l-25.9,1.7c0-2.1-3.4-0.7-10.7,3.8
		l-26.2,2.4c-10.7,1-19.3,0.7-25.6-0.3l-13.1,3.8v1.7h-3.8c-4.8,2.4-9.7,4.8-14.5,6.6l-19,6.6c-1.4,0-2.1,1-1.7,3.5
		c-2.1-0.4-5.2,1-9,3.4C270.3,297.7,269.7,297,268.3,297L268.3,297z"/>
	<path class="st0" d="M450.9,331.5c11.7,3.1,22.4-0.3,32.1-10.4L450.9,331.5z M777.6,217.6c-6.9,2.8-10.3,4.5-10.7,5.5
		c-3.5,0-6.6,2.4-10,7.6l-6.9,11.1c-2.4,1.7-5.9,3.5-11.1,5.5v1.7c-1,0-1.7-0.7-1.7-1.7c-1.4,0.1-2.8,0.7-3.8,1.7h2.1l-2.4,1
		c-8.6,4.1-16.9,8.3-25.6,12.4c-8.6,5.5-15.9,12.1-20.7,20c1,0,1.4,2.4,1.4,7.6c0,6.2,3.1,12.1,9.7,17.3c6.5,5.5,14.2,8.6,21.8,9
		l24.9-2.4c1.7,0,2.8-1.7,3.4-5.5h3.8c0,3.4,1.4,6.2,3.8,7.6c1.7,0,2.8,1,3.8,3.8c2.1,6.9,3.4,21.1,4.1,42.1l7.3,70.8v1.7
		c-1,0-1.7,2.8-2.1,8c-0.3,5.9-1,9.3-1.7,10.4c0,1.7-1.7,1-5.2-2.1l-6.5-6.9c-13.8-22.1-33.2-41.1-58-56.3L675,373.7
		c-3.1-2.1-6.9-6.2-11.7-12.4c-4.5-5.9-8.3-9.7-11.4-12.1c0-4.8-9.7-7.6-29.7-7.3c0,1-1,2.4-3.4,3.4v-1.7l-2.1,0.4
		c-26.6,8.3-47,22.1-61.1,42.1l-22.8,50.4c-7.3,18-10,28-9,29.4l-5.5,21l0.4,31.4c0.7,17.2,2.1,26.9,3.4,29c0,8.6,3.1,20,9,34.5
		c5.9,14.1,11.7,24.5,17.3,31.4c7.9,10,15.9,15.9,24.2,18.7c14.2,4.2,34.9,2.1,62.2-5.9c24.9-7.6,43.5-16.2,55.6-25.9l40.1-41.4
		l29-20.7c0-1,0.7-1.7,2.1-1.7l1.7,4.5l3.1,3.8l7.6,21c-1,0-1.4,2.4-0.4,6.2l2.4,9l5.2,33.8c2.1,13.8,2.8,25.2,2.4,34.5l-3.4,40.1
		c-0.7,12.4,2.4,25.2,9,38c0,1.4,2.4,1.7,7.6,1.7c0,2.1,1.4,3.8,4.1,5.9l6.5,3.1c2.4,0,2.1,4.8-1,14.2l-5.9,17.3h1.7v2h5.2l3.5-11.4
		c2.8-9,5.5-14.9,7.3-17.3l18.7-14.1c7.9-5.9,12.4-12.1,13.5-18.7c1.4-8.5,1-17.2-1-25.5l-5.5-24.2l-2.4-83.6
		c-0.3-5.2,0.4-9.7,1.7-12.8c-0.4-2.1,1-3.8,3.4-5.5c0-4.2,9-5.9,26.6-4.2c12.8,1,26.6,7.6,41.8,19c7.3,5.9,19,16.6,34.9,32.8
		c17.6,17.2,26.9,27.6,28.7,30c10.7,16.2,20.7,26.9,30.1,32.1c7.3,3.4,14.2,1.7,20.7-5.2c6.9-8,9.7-15.6,8.6-22.8
		c-1.4-8.3-9-21.8-23.1-39c-12.1-14.5-23.5-26.2-33.5-34.9l-25.9-20c-11.4-9.3-18-17.3-19.3-23.8c-0.7-3.8-0.3-7.3,2.1-10l30-25.6
		l33.8-38.3c9-11.7,14.9-22.8,16.9-33.5c5.5-26.2,5.5-47.3,0-63.5c-9.7-26.9-29-51.1-58.4-72.5c-25.2-18-53.5-31.1-85.3-40.1
		l-62.2-7.9C807.9,230.4,796.2,225.5,777.6,217.6L777.6,217.6z M620.4,413.7c0,1.7,3.5,1.7,10.7,1l13.5-2.8
		c3.8,2.4,11.7,6.2,23.5,11.1c8.3,3.4,16.2,7.6,23.5,12.8c5.2,4.2,10.3,10.4,15.5,19c6.2,10.4,10.4,17.2,13.1,20
		c-0.7,0-0.4,5.9,0.4,17.3c1,11.7-0.4,19-4.2,21.8c0,12.4-2.7,23.1-8.3,33.1c-10.7,17.6-28,32.5-51.8,45.2
		c-28,14.2-49.4,15.9-65.3,4.2c-17.3-12.8-26.9-36.9-29.4-72.9c-2.8-34.5,2.4-61.1,14.9-79.8c4.1-5.8,10.7-11.4,20.4-16.9
		L620.4,413.7L620.4,413.7z M829.3,286.3l9.7-2.1h3.8c-0.4,1,2.1,1.7,6.9,2.1h9.3c11.7,1.4,26.6,6.9,43.9,16.6
		c24.5,13.8,41.4,26.6,51.1,38c14.5,17.6,18.3,37.6,11.1,60.1c0,0-0.4,2.8-2.1,7.6h-1.7l1.7,1.4c-0.1,1.4-0.7,2.8-1.7,3.8l-2.4,4.8
		l-3.8,4.1c-6.9,11.1-16.2,20.7-28.7,29.7l-33.8,22.4c-5.5,0-11.7-1.7-19-5.2l-17.6-7.3l-15.5-1.8c-6.9-0.3-11.4-1.7-14.2-4.5
		c-4.1-4.1-8.3-14.9-11.7-32.1c-4.2-16.9-6.9-35.2-8.6-54.6c-3.8-49.7,1.7-76,16.6-79.4C822.4,288.4,824.9,287,829.3,286.3
		L829.3,286.3z M1091.1,126.8l-10,6.2c-4.1,1.7-7.3,3.5-9.3,5.9c-6.5,7.3-8.6,17.3-5.9,29c2.4,11.4,7.6,20,15.9,25.6
		c0,1.4,3.8,2.1,11.4,2.1c11.7-2.8,18.7-4.5,20-6.2c6.6-5.2,9-13.8,6.6-25.6c-1.7-10.4-5.9-18.7-11.7-24.9L1091.1,126.8
		L1091.1,126.8z M1096.6,315.3c0.7-9.7,0.3-17.6-0.7-23.5c-0.7-4.8-5.5-11.4-14.2-18.7c-8.3,4.5-13.1,8.6-15.2,12.1
		c-1.7,3.1-3.8,12.1-6.2,26.9c-2.4,16.2-5.2,28.7-7.9,37.6l-0.3,1l-4.2,24.5l2.8,109.1c0,26.9,0.7,45.9,1.7,57
		c2.8,20.4,7.9,36.9,16.2,50.1c-0.3-1,1-1,3.4,0v-1.7c5.9,6.6,9.7,10.4,11.4,11.4v-2.1l13.8-15.5c2.4-4.5,3.1-10.4,2.4-18l-3.1-18.3
		l1-23.8l-1.7-15.2l5.2-135l-4.8-33.8L1096.6,315.3L1096.6,315.3z"/>
</g>
</svg>
